# xmcd CD database file generated by Grip 3.2.0
# 
# Track frame offsets:
#       150
#       8112
#       8725
#       9673
#       10617
#       11568
#       12512
#       13460
#       14393
#       15337
#       16292
#       17243
#       19789
#       21932
#       24077
#       26432
#       28585
#       31138
#       33298
#       35872
#       38436
#       40999
#       43549
#       46109
#       48673
#       51247
#       53410
#       55574
#       57733
#       60283
#       62450
#       63279
#       63951
#       64617
#       65718
#       66380
#       67526
#       68588
#       69571
#       70804
#       72386
#       74754
#       77001
#       79168
#       81550
#       82379
#       83226
#       84020
#       85024
#       85863
#       86689
#       87522
#       88400
#       89236
#       90049
#       90823
#       91713
#       92650
#       93547
#       94443
#       95197
#       95979
#       97500
#       98989
#       99560
#       100698
#       101837
#       102978
#       103688
#       104624
#       105645
#       106584
#       108722
#       115601
#       119104
#       121762
#       130790
#       132026
#       134573
#       137116
#       139665
#       142651
#       155336
#       189832
#       216989
#       217612
#       218243
#       218964
#       219651
#       220313
#       220964
#       221630
#       222334
# 
# Disc length: 2972 seconds
# 
# Revision: 1
# Processed by: cddbd v1.5.2PL0 Copyright (c) Steve Scherf et al.
# Submitted via: Grip 3.2.0
# 
DISCID=fd0b9a5d
DTITLE=David Barrett - Improvising Blues Harmonica
DYEAR=1900
DGENRE=Other
TTITLE0=Opening
TTITLE1=Ex 1.1
TTITLE2=Ex 1.2
TTITLE3=Ex 1.3
TTITLE4=Ex 1.4
TTITLE5=Ex 1.5
TTITLE6=Ex 1.6
TTITLE7=Ex 1.7
TTITLE8=Ex 1.8
TTITLE9=Ex 1.9
TTITLE10=Ex 1.10
TTITLE11=Ex 1.13
TTITLE12=Ex 1.15
TTITLE13=Ex 1.17
TTITLE14=Ex 1.19
TTITLE15=Ex 1.21
TTITLE16=Ex 1.23
TTITLE17=Ex 1.25
TTITLE18=Ex 1.27
TTITLE19=Ex 1.29
TTITLE20=Ex 1.31
TTITLE21=Ex 1.34
TTITLE22=Ex 1.35
TTITLE23=Ex 1.36
TTITLE24=Ex 1.38
TTITLE25=Ex 1.40
TTITLE26=Ex 1.41
TTITLE27=Ex 1.42
TTITLE28=Ex 1.43
TTITLE29=Ex 1.44
TTITLE30=Ex 2.1
TTITLE31=Ex 2.2
TTITLE32=Ex 2.3
TTITLE33=Ex 2.4
TTITLE34=Ex 2.5
TTITLE35=Ex 2.7
TTITLE36=Ex 2.8
TTITLE37=Ex 2.11
TTITLE38=Ex 2.12
TTITLE39=Ex 2.13
TTITLE40=Ex 2.14
TTITLE41=Ex 2.15
TTITLE42=Ex 2.17
TTITLE43=Ex 2.21
TTITLE44=Ex 2.22 - M7
TTITLE45=Ex 2.22 - 7
TTITLE46=Ex 2.22 - m7
TTITLE47=Ex 2.22 - m7-flat 5
TTITLE48=Ex 2.22 - dim7
TTITLE49=Ex 2.22 - 7aug
TTITLE50=Ex 2.22 - M9
TTITLE51=Ex 2.22 - 9
TTITLE52=Ex 2.22 - (9)
TTITLE53=Ex 2.22 - m9
TTITLE54=Ex 2.22 - 69
TTITLE55=Ex 2.22 - 11
TTITLE56=Ex 2.22 - m11
TTITLE57=Ex 2.22 - 13
TTITLE58=Ex 2.22 - 13(9)
TTITLE59=Ex 2.22 - 6
TTITLE60=Ex 2.22 - m6
TTITLE61=Ex 2.23 and Ex 2.24
TTITLE62=Ex 2.25 and Ex 2.26
TTITLE63=Ex 2.27
TTITLE64=Ex 2.28
TTITLE65=Ex 2.29
TTITLE66=Ex 2.30
TTITLE67=Ex 2.31
TTITLE68=Ex 2.32
TTITLE69=Ex 2.33
TTITLE70=Ex 2.35
TTITLE71=Ex 2.40
TTITLE72=Ex 3.2 through 3.5
TTITLE73=Ex 3.6 through 3.8
TTITLE74=Ex 3.9 through 3.11
TTITLE75=Ex 3.12 through 3.14
TTITLE76=Ex 3.15
TTITLE77=Ex 3.16
TTITLE78=Ex 3.17
TTITLE79=Ex 3.18
TTITLE80=Restrained Solo Backing
TTITLE81=Ex 4.1 Lick Train
TTITLE82=Ex 4.2 Serious Fun
TTITLE83=Ex 4.3 Chicago Style
TTITLE84=Ex 5.1
TTITLE85=Ex 5.2
TTITLE86=Ex 5.3
TTITLE87=Ex 5.4
TTITLE88=Ex 5.5
TTITLE89=Ex 5.6
TTITLE90=Ex 5.7
TTITLE91=Ex 5.8
TTITLE92=Ex 5.9
EXTD=
EXTT0=
EXTT1=
EXTT2=
EXTT3=
EXTT4=
EXTT5=
EXTT6=
EXTT7=
EXTT8=
EXTT9=
EXTT10=
EXTT11=
EXTT12=
EXTT13=
EXTT14=
EXTT15=
EXTT16=
EXTT17=
EXTT18=
EXTT19=
EXTT20=
EXTT21=
EXTT22=
EXTT23=
EXTT24=
EXTT25=
EXTT26=
EXTT27=
EXTT28=
EXTT29=
EXTT30=
EXTT31=
EXTT32=
EXTT33=
EXTT34=
EXTT35=
EXTT36=
EXTT37=
EXTT38=
EXTT39=
EXTT40=
EXTT41=
EXTT42=
EXTT43=
EXTT44=
EXTT45=
EXTT46=
EXTT47=
EXTT48=
EXTT49=
EXTT50=
EXTT51=
EXTT52=
EXTT53=
EXTT54=
EXTT55=
EXTT56=
EXTT57=
EXTT58=
EXTT59=
EXTT60=
EXTT61=
EXTT62=
EXTT63=
EXTT64=
EXTT65=
EXTT66=
EXTT67=
EXTT68=
EXTT69=
EXTT70=
EXTT71=
EXTT72=
EXTT73=
EXTT74=
EXTT75=
EXTT76=
EXTT77=
EXTT78=
EXTT79=
EXTT80=
EXTT81=
EXTT82=
EXTT83=
EXTT84=
EXTT85=
EXTT86=
EXTT87=
EXTT88=
EXTT89=
EXTT90=
EXTT91=
EXTT92=
PLAYORDER=
